<?xml version="1.0" encoding="UTF-8" standalone="no"?>
<svg
   xmlns:dc="http://purl.org/dc/elements/1.1/"
   xmlns:cc="http://creativecommons.org/ns#"
   xmlns:rdf="http://www.w3.org/1999/02/22-rdf-syntax-ns#"
   xmlns:svg="http://www.w3.org/2000/svg"
   xmlns="http://www.w3.org/2000/svg"
   xmlns:sodipodi="http://sodipodi.sourceforge.net/DTD/sodipodi-0.dtd"
   xmlns:inkscape="http://www.inkscape.org/namespaces/inkscape"
   id="Layer_1"
   data-name="Layer 1"
   viewBox="0 0 121.72944 32.859706"
   version="1.1"
   sodipodi:docname="gatship_logo_edited2.svg"
   width="28"
   height="28"
   inkscape:version="1.0.1 (3bc2e813f5, 2020-09-07)">
  <metadata
     id="metadata74">
    <rdf:RDF>
      <cc:Work
         rdf:about="">
        <dc:format>image/svg+xml</dc:format>
        <dc:type
           rdf:resource="http://purl.org/dc/dcmitype/StillImage" />
        <dc:title>GatShip</dc:title>
      </cc:Work>
    </rdf:RDF>
  </metadata>
  <sodipodi:namedview
     pagecolor="#ffffff"
     bordercolor="#666666"
     borderopacity="1"
     objecttolerance="10"
     gridtolerance="10"
     guidetolerance="10"
     inkscape:pageopacity="0"
     inkscape:pageshadow="2"
     inkscape:window-width="2560"
     inkscape:window-height="1377"
     id="namedview72"
     showgrid="false"
     inkscape:zoom="9.7119342"
     inkscape:cx="15.08252"
     inkscape:cy="11.020123"
     inkscape:window-x="-8"
     inkscape:window-y="-8"
     inkscape:window-maximized="1"
     inkscape:current-layer="Layer_1"
     inkscape:document-rotation="0" />
  <defs
     id="defs45">
    <style
       id="style43">.cls-1{fill:#646363}.cls-2{fill:#f39200}.cls-3{fill:#878787}.cls-4{fill:none}</style>
  </defs>
  <title
     id="title47">GatShip</title>
  <path
     class="cls-1"
     d="m 23.176066,-7.0069444 c -3.1,2.1 -1.4,2.2 -0.7,3.4 a 2.2,2.2 0 0 0 3.1,0.8 c 3.5,-2.4 7,-4.2 11.7,-4.2 10.7,0 19.4,6.79999998 19.4,15.2 l -0.2,2.0000004 a 2.6,2.6 0 0 0 2,2.9 2.1,2.1 0 0 0 2.4,-2 l 0.2,-2.9000004 c 0,-11.1 -10.7,-20.0999996 -23.9,-20.0999996 -5.4,-0.1 -9.7,1.9999996 -14,4.8999996 z"
     id="path53"
     style="fill:#000000;fill-opacity:1" />
  <path
     class="cls-1"
     d="m 42.276066,-9.9069444 a 2.6,2.6 0 0 0 -0.2,1 2.5,2.5 0 0 0 1.3,2.2 l 1.3,0.6 c 0.6,0.3 1.8,0.4 2.8,0.9 l 2.6,1.2 c 9.4,4.49999998 25.6,12.7 25.8,12.8 a 21,21 0 0 1 7.9,16.9000004 v 0.9 a 2.4,2.4 0 0 0 2.2,2.4 2.3,2.3 0 0 0 2.4,-2.3 26.1,26.1 0 0 0 -10.2,-22.1000004 l -0.3,-0.2 -29.7,-14.2 c -1.1,-0.4999996 -5.4,-1.2999996 -5.9,-0.1 z"
     id="path55"
     style="fill:#000000;fill-opacity:1" />
  <path
     class="cls-1"
     d="m 126.77606,56.393058 c -81.133324,-53.4666724 -40.566664,-26.733332 0,0 z M 6.476066,-7.0069444 c -3.3,3.6 -0.2,10 2.4,14.5 0.1,0.1 10.2,19.7000004 12.9,40.2000004 v 0.3 c 0.4,2.6 3.1,7.500002 10,7.400002 3.26667,0 3.26667,-4.900002 0,-4.900002 -4.1,0 -5,-2.7 -5.1,-3.3 -2.1,-19.2 -12.899999,-41.0000004 -13.399999,-42.0000004 -2.800001,-4.80000002 -3.200001,-7.1 -3.200001,-8.2 -0.0458,-0.2707 -0.0111,-0.54891 0.1,-0.8 0.7,-0.8 5.1,0 8.6,1.5 0.7,0.3 58.3,21.5000004 83.899994,44.3000004 v 8.6 H 50.276066 c -3.26667,0 -3.26667,4.900002 0,4.900002 h 54.699994 c 1.32548,0 2.4,-1.07452 2.4,-2.4 V 40.993056 c 0.003,-0.68683 -0.28805,-1.34211 -0.8,-1.8 -25.999994,-23.7 -83.699994,-45.0000004 -86.199994,-45.9000004 -2.5,-0.9 -10.3,-4.1999996 -13.9,-0.3 z m 61.5,-16.4999986 -0.2,16.9999986 h 5.1 V -18.706943 h 13.5 v 17.0999986 l 4.823075,3.899668 0.08863,-5.849502 -0.0117,-2.850166 V -23.506943 Z"
     id="path59"
     sodipodi:nodetypes="cccccccsccccsccssssccscccccccccccc"
     style="fill:#000000;fill-opacity:1" />
  <path
     class="cls-1"
     d="m 86.276066,1.9930556 8.7,11.8000004 5.326954,7.590478 -0.027,3.509522 v 14.9 h 4.9 v -19.8 L 102.5082,16.044844 99.876061,12.193056 95.255664,5.8499356 91.221568,-0.02498742 86.39378,-4.4768474 Z"
     id="path61"
     style="fill:#000000;fill-opacity:1"
     sodipodi:nodetypes="ccccccccccccc" />
  <path
     class="cls-1"
     d="m 102.57606,48.593056 h 4.8 v 7.000002 h -4.8 z m -71.499994,2 h 20.648836 l 1.329432,4.860002 H 31.076066 Z"
     id="path63"
     style="fill:#000000;fill-opacity:1"
     sodipodi:nodetypes="cccccccccc" />
  <path
     style="fill:#000000;stroke-width:0.0941304"
     d="m 31.120401,52.066358 c -1.173302,-0.0872 -1.696042,-0.21482 -2.568858,-0.62721 -0.838187,-0.39602 -1.663803,-1.185507 -2.034966,-1.945923 -0.17411,-0.356701 -0.302881,-0.847504 -0.392996,-1.497863 C 25.189831,41.256434 24.008377,35.946424 21.95691,29.268385 19.446171,21.0953 14.965796,9.7523906 12.016079,4.1013156 10.291929,0.79818058 9.9025721,0.00726158 9.5003551,-1.0089914 c -0.5795236,-1.464239 -0.8937586,-2.733577 -0.9073357,-3.665142 -0.012293,-0.843291 0.054709,-0.976932 0.5603437,-1.117709 1.0654849,-0.296645 4.0549439,0.202259 6.6887609,1.116298 3.209856,1.113934 15.034454,5.871896 22.047729,8.87153 C 68.310111,17.206974 91.64258,30.267384 105.37162,41.969078 l 1.29156,1.100846 0.001,2.977098 c 9.4e-4,1.637403 -0.0266,3.683607 -0.0606,4.547125 l -0.0618,1.570021 -37.240718,-0.014 c -20.482396,-0.008 -37.663814,-0.0454 -38.180924,-0.0838 z"
     id="path840" />
</svg>
